# xmcd
# 
# Track frame offsets:
#     150
#     13639
#     24962
#     42307
#     69257
#     88486
#     116612
#     124966
#     142526
#     156598
#     176557
#     187842
# 
# Disc length: 2857
# 
# Revision: 1
# Processed by: cddbd v1.5.2PL0 Copyright (c) Steve Scherf et al.
# Submitted via: fre:ac v1.0.31
# 
DISCID=990b270c
DTITLE=Ruthie Culver - Refashioned
DYEAR=2007
DGENRE=Jazz
TTITLE0=How Little We Know
TTITLE1=You'd Be So Nice To Come Home To
TTITLE2=If I Should Lose You
TTITLE3=Munchhausen (Liar, liar)
TTITLE4=The Perfect Dress
TTITLE5=Hymne A L`amour
TTITLE6=To A Little Radio
TTITLE7=Strange (Libertango)
TTITLE8=On The Street Where You Live
TTITLE9=Old Devil Moon
TTITLE10=Mean To Me
TTITLE11=Ballad Of The Sad Young Me
EXTD=YEAR: 2007
EXTT0=
EXTT1=
EXTT2=
EXTT3=
EXTT4=
EXTT5=
EXTT6=
EXTT7=
EXTT8=
EXTT9=
EXTT10=
EXTT11=
PLAYORDER=
